<svg viewBox="0 0 196 196" xmlns="http://www.w3.org/2000/svg" xml:space="preserve" style="fill-rule:evenodd;clip-rule:evenodd;stroke-linejoin:round;stroke-miterlimit:2"><path style="fill:#c5111c" d="M15.314 12.127h33.634v58.795H15.314z" transform="matrix(5.82746 0 0 3.33364 -89.239 -40.428)"/><path d="M58.93 156.798s-8.811-8.724-4.029-21.688c4.782-12.963 12.695-73.651 12.695-73.651s-2.296-11.866 2.66-14.932c4.957-3.066 7.582-8.411 7.582-8.411 3.871 3.331 8.229 3.582 13.688-3.116l10.59 4.096c2.39 4.765 2.921 8.255.029 9.399L98 62.758l15.585 42.915c6.08-15.081 5.009-30.574 3.205-46.109l3.7-2.134c-.381-7.879.702-15.789 7.61-23.82l4.043-.678c.01-4.93 1.553-8.209 3.526-11.025 3.924 5.901 6.754 10.433 8.867 14.071l-.508 3.144 1.811 3.053-2.286 2.46c-2.15 47.438-5.058 91.816-16.858 100.328l-14.808 4.325c-4.584-2.136-7.337-5.655-9.417-9.683l-16.751-33.334-10.524 32.652 2.469 6.04c-4 .889-6.365 3.149-6.621 7.179l-12.113 4.656Z" style="fill:#fff" transform="translate(-26.306 -17.85) scale(1.24731)"/></svg>